# xmcd CD database file generated by Grip 3.2.0
# 
# Track frame offsets:
#       150
#       20835
#       43144
#       69126
#       86335
# 
# Disc length: 1412 seconds
# 
# Revision: 1
# Processed by: cddbd v1.5.1PL0 Copyright (c) Steve Scherf et al.
# Submitted via: Grip 3.2.0
# 
DISCID=37058205
DTITLE=Barry White - Głos, który rozpala zmysły
DYEAR=2003
DGENRE=Blues
TTITLE0=You Are the First, the Last, My Everything
TTITLE1=Love Making Music
TTITLE2=Don’t Forget… Remember
TTITLE3=We Can’t Let Go of Love
TTITLE4=Your Love, Your Love
EXTD=YEAR: 2003
EXTT0=
EXTT1=
EXTT2=
EXTT3=
EXTT4=
PLAYORDER=
